<svg xmlns="http://www.w3.org/2000/svg" viewBox="0 0 24 24" width="24" height="24">
  <path d="M9.19 3.44C9.53 3.49 11.82 5.76 12.09 5.87C12.35 5.97 12.31 4.75 12.43 4.71C12.54 4.67 13.3 4.67 13.45 5.39C13.59 6.12 13.8 12.81 14.13 13.39C14.45 13.96 16.95 12.17 17.39 12.28C17.83 12.39 18.98 14.54 19.43 14.75C19.88 14.95 22.53 14.59 22.8 14.75C23.07 14.9 23 16.19 22.73 16.62C22.46 17.05 20.07 19.55 19.57 19.88C19.07 20.21 17.4 20.89 16.76 20.56C16.12 20.23 12.44 16.42 11.91 15.94C11.39 15.45 10.91 14.73 10.42 14.75C9.93 14.76 6.56 16.51 6 16.14C5.43 15.78 4.01 10.84 3.62 10.36C3.22 9.88 1.22 10.79 1.2 10.36C1.18 9.93 2.84 5.61 3.41 5.19C3.98 4.76 7.52 5.4 8 5.26C8.49 5.11 8.85 3.39 9.19 3.44Z" fill="#000"/>
</svg>
